<svg width="130" height="103" viewBox="0 0 130 103" fill="none" xmlns="http://www.w3.org/2000/svg">
<path d="M46.7611 58.3905C46.7611 58.3905 22.1838 78.8285 16.7509 78.8285C11.318 78.8285 7.52361 70.2911 1.57331 77.4487C-4.46323 84.6063 8.81715 89.5218 8.81715 89.5218C8.81715 89.5218 5.62641 99.0077 12.3528 102.285C19.0793 105.562 19.7691 96.9381 21.4939 89.4355C23.1324 81.933 55.5572 68.8251 55.5572 68.8251L46.7611 58.3905Z" fill="#F2D0A4"/>
<path d="M126.185 40.4533C137.827 19.9291 118.768 -4.99316 95.9157 0.870908C95.5708 0.957145 95.3121 1.04337 94.9671 1.12961C77.3749 6.30378 40.7246 56.0621 41.7594 60.4602C43.3979 67.5315 50.8142 59.5978 47.9684 65.6343C45.1226 71.6709 42.0181 75.8964 57.5406 72.7057C73.1494 69.5149 118.078 53.82 125.753 41.1432C125.926 40.8845 126.098 40.6258 126.185 40.4533Z" fill="#C89059"/>
<path d="M82.7216 24.4996C99.1065 9.23577 111.783 5.78633 118.423 5.26892C112.387 0.784633 104.453 -1.28504 95.9157 0.870864C95.5708 0.9571 95.3121 1.04333 94.9671 1.12956C77.375 6.30374 40.7246 56.0621 41.7594 60.4601C43.3979 67.5315 50.8142 59.5977 47.9684 65.6343C45.1226 71.6708 42.0181 75.8964 57.5406 72.7056C59.869 72.1882 62.8873 71.4121 66.3367 70.4635C64.957 60.7188 64.8707 41.1432 82.7216 24.4996Z" fill="#BA7F4A"/>
<path d="M91.259 29.3289C90.3966 29.8463 89.1893 29.5876 88.6719 28.7252C88.1545 27.8629 88.4132 26.6555 89.2755 26.1381C90.1379 25.6207 91.3452 25.8794 91.8626 26.7418C92.38 27.6042 92.1213 28.8115 91.259 29.3289Z" fill="#BA7F4A"/>
<path d="M83.584 39.246C82.5491 39.8497 81.2556 39.591 80.5657 38.5562C79.962 37.5213 80.2207 36.2278 81.2556 35.5379C82.2904 34.9342 83.5839 35.1929 84.2738 36.2278C84.9637 37.2626 84.6188 38.5561 83.584 39.246Z" fill="#BA7F4A"/>
<path d="M77.8923 50.543C76.8575 51.1466 75.564 50.8879 74.8741 49.8531C74.2704 48.8182 74.5291 47.5247 75.5639 46.8348C76.5988 46.2312 77.8923 46.4899 78.5822 47.5247C79.2721 48.5596 78.8409 49.8531 77.8923 50.543Z" fill="#BA7F4A"/>
<path d="M87.7233 46.921C86.9471 47.4384 85.9123 47.1797 85.4811 46.4036C84.9637 45.6275 85.2224 44.5927 85.9985 44.1615C86.7747 43.6441 87.8095 43.9027 88.2407 44.6789C88.7581 45.455 88.4994 46.4036 87.7233 46.921Z" fill="#BA7F4A"/>
<path d="M101.694 24.0684C100.917 24.5858 99.8826 24.3271 99.4514 23.551C98.934 22.7749 99.1927 21.7401 99.9689 21.3089C100.745 20.7915 101.78 21.0501 102.211 21.8263C102.728 22.6024 102.47 23.6372 101.694 24.0684Z" fill="#BA7F4A"/>
</svg>
